<mxfile host="Electron" modified="2024-05-14T09:05:05.649Z" agent="Mozilla/5.0 (Windows NT 10.0; Win64; x64) AppleWebKit/537.36 (KHTML, like Gecko) draw.io/23.1.5 Chrome/120.0.6099.109 Electron/28.1.0 Safari/537.36" etag="P_vLvH60_MItwchmiDm-" version="23.1.5" type="device">
  <diagram name="Page-1" id="VWDPkJCZ-tbFXnlN4n3G">
    <mxGraphModel dx="1674" dy="844" grid="1" gridSize="10" guides="1" tooltips="1" connect="1" arrows="1" fold="1" page="1" pageScale="1" pageWidth="827" pageHeight="1169" math="0" shadow="0">
      <root>
        <mxCell id="0" />
        <mxCell id="1" parent="0" />
        <mxCell id="VeIiCj26f4UOhB-fIt1d-42" style="edgeStyle=orthogonalEdgeStyle;rounded=0;orthogonalLoop=1;jettySize=auto;html=1;entryX=0.75;entryY=0;entryDx=0;entryDy=0;shadow=0;" edge="1" parent="1" source="VeIiCj26f4UOhB-fIt1d-15" target="VeIiCj26f4UOhB-fIt1d-13">
          <mxGeometry relative="1" as="geometry" />
        </mxCell>
        <mxCell id="VeIiCj26f4UOhB-fIt1d-46" style="edgeStyle=orthogonalEdgeStyle;rounded=0;orthogonalLoop=1;jettySize=auto;html=1;entryX=0;entryY=0.5;entryDx=0;entryDy=0;" edge="1" parent="1" source="VeIiCj26f4UOhB-fIt1d-9" target="VeIiCj26f4UOhB-fIt1d-13">
          <mxGeometry relative="1" as="geometry">
            <Array as="points">
              <mxPoint x="249" y="170" />
              <mxPoint x="249" y="250" />
            </Array>
          </mxGeometry>
        </mxCell>
        <mxCell id="VeIiCj26f4UOhB-fIt1d-51" value="Bestuurt" style="edgeLabel;html=1;align=center;verticalAlign=middle;resizable=0;points=[];" vertex="1" connectable="0" parent="VeIiCj26f4UOhB-fIt1d-46">
          <mxGeometry x="0.4526" y="-1" relative="1" as="geometry">
            <mxPoint x="1" y="-1" as="offset" />
          </mxGeometry>
        </mxCell>
        <mxCell id="VeIiCj26f4UOhB-fIt1d-47" style="edgeStyle=orthogonalEdgeStyle;rounded=0;orthogonalLoop=1;jettySize=auto;html=1;" edge="1" parent="1" source="VeIiCj26f4UOhB-fIt1d-9" target="VeIiCj26f4UOhB-fIt1d-10">
          <mxGeometry relative="1" as="geometry" />
        </mxCell>
        <mxCell id="VeIiCj26f4UOhB-fIt1d-49" value="Bestuurt" style="edgeLabel;html=1;align=center;verticalAlign=middle;resizable=0;points=[];" vertex="1" connectable="0" parent="VeIiCj26f4UOhB-fIt1d-47">
          <mxGeometry x="0.2474" y="-4" relative="1" as="geometry">
            <mxPoint x="-1" y="-4" as="offset" />
          </mxGeometry>
        </mxCell>
        <mxCell id="VeIiCj26f4UOhB-fIt1d-9" value="Gebruiker" style="rounded=1;whiteSpace=wrap;html=1;" vertex="1" parent="1">
          <mxGeometry x="79" y="140" width="120" height="60" as="geometry" />
        </mxCell>
        <mxCell id="VeIiCj26f4UOhB-fIt1d-34" style="edgeStyle=orthogonalEdgeStyle;rounded=0;orthogonalLoop=1;jettySize=auto;html=1;" edge="1" parent="1" source="VeIiCj26f4UOhB-fIt1d-10" target="VeIiCj26f4UOhB-fIt1d-17">
          <mxGeometry relative="1" as="geometry" />
        </mxCell>
        <mxCell id="VeIiCj26f4UOhB-fIt1d-44" value="Communiceert" style="edgeLabel;html=1;align=center;verticalAlign=middle;resizable=0;points=[];" vertex="1" connectable="0" parent="VeIiCj26f4UOhB-fIt1d-34">
          <mxGeometry x="-0.32" relative="1" as="geometry">
            <mxPoint x="-21" as="offset" />
          </mxGeometry>
        </mxCell>
        <mxCell id="VeIiCj26f4UOhB-fIt1d-12" value="SMTP server" style="rounded=1;whiteSpace=wrap;html=1;" vertex="1" parent="1">
          <mxGeometry x="629" y="480" width="120" height="60" as="geometry" />
        </mxCell>
        <mxCell id="VeIiCj26f4UOhB-fIt1d-10" value="Login scherm" style="rounded=1;whiteSpace=wrap;html=1;" vertex="1" parent="1">
          <mxGeometry x="393" y="140" width="120" height="60" as="geometry" />
        </mxCell>
        <mxCell id="VeIiCj26f4UOhB-fIt1d-32" style="edgeStyle=orthogonalEdgeStyle;rounded=0;orthogonalLoop=1;jettySize=auto;html=1;" edge="1" parent="1" source="VeIiCj26f4UOhB-fIt1d-13" target="VeIiCj26f4UOhB-fIt1d-17">
          <mxGeometry relative="1" as="geometry" />
        </mxCell>
        <mxCell id="VeIiCj26f4UOhB-fIt1d-45" value="Communiceert" style="edgeLabel;html=1;align=center;verticalAlign=middle;resizable=0;points=[];" vertex="1" connectable="0" parent="VeIiCj26f4UOhB-fIt1d-32">
          <mxGeometry x="-0.0641" y="1" relative="1" as="geometry">
            <mxPoint as="offset" />
          </mxGeometry>
        </mxCell>
        <mxCell id="VeIiCj26f4UOhB-fIt1d-13" value="E-mail scherm" style="rounded=1;whiteSpace=wrap;html=1;" vertex="1" parent="1">
          <mxGeometry x="393" y="220" width="120" height="60" as="geometry" />
        </mxCell>
        <mxCell id="VeIiCj26f4UOhB-fIt1d-25" style="edgeStyle=orthogonalEdgeStyle;rounded=0;orthogonalLoop=1;jettySize=auto;html=1;" edge="1" parent="1" source="VeIiCj26f4UOhB-fIt1d-14" target="VeIiCj26f4UOhB-fIt1d-12">
          <mxGeometry relative="1" as="geometry" />
        </mxCell>
        <mxCell id="VeIiCj26f4UOhB-fIt1d-53" value="Maakt en verstuurd e-mail" style="edgeLabel;html=1;align=center;verticalAlign=middle;resizable=0;points=[];" vertex="1" connectable="0" parent="VeIiCj26f4UOhB-fIt1d-25">
          <mxGeometry x="-0.1" y="3" relative="1" as="geometry">
            <mxPoint as="offset" />
          </mxGeometry>
        </mxCell>
        <mxCell id="VeIiCj26f4UOhB-fIt1d-14" value="Model" style="rounded=1;whiteSpace=wrap;html=1;" vertex="1" parent="1">
          <mxGeometry x="629" y="360" width="120" height="60" as="geometry" />
        </mxCell>
        <mxCell id="VeIiCj26f4UOhB-fIt1d-43" style="edgeStyle=orthogonalEdgeStyle;rounded=0;orthogonalLoop=1;jettySize=auto;html=1;entryX=0.25;entryY=0;entryDx=0;entryDy=0;" edge="1" parent="1" source="VeIiCj26f4UOhB-fIt1d-15" target="VeIiCj26f4UOhB-fIt1d-10">
          <mxGeometry relative="1" as="geometry" />
        </mxCell>
        <mxCell id="VeIiCj26f4UOhB-fIt1d-54" value="CreÃ«ert" style="edgeLabel;html=1;align=center;verticalAlign=middle;resizable=0;points=[];" vertex="1" connectable="0" parent="VeIiCj26f4UOhB-fIt1d-43">
          <mxGeometry x="-0.1127" y="-1" relative="1" as="geometry">
            <mxPoint x="-6" y="-1" as="offset" />
          </mxGeometry>
        </mxCell>
        <mxCell id="VeIiCj26f4UOhB-fIt1d-15" value="View" style="rounded=1;whiteSpace=wrap;html=1;" vertex="1" parent="1">
          <mxGeometry x="79" y="50" width="120" height="60" as="geometry" />
        </mxCell>
        <mxCell id="VeIiCj26f4UOhB-fIt1d-33" style="edgeStyle=orthogonalEdgeStyle;rounded=0;orthogonalLoop=1;jettySize=auto;html=1;" edge="1" parent="1" source="VeIiCj26f4UOhB-fIt1d-17" target="VeIiCj26f4UOhB-fIt1d-14">
          <mxGeometry relative="1" as="geometry" />
        </mxCell>
        <mxCell id="VeIiCj26f4UOhB-fIt1d-52" value="Verstuurd gegevens&lt;br&gt;en bestuurt" style="edgeLabel;html=1;align=center;verticalAlign=middle;resizable=0;points=[];" vertex="1" connectable="0" parent="VeIiCj26f4UOhB-fIt1d-33">
          <mxGeometry x="-0.0444" relative="1" as="geometry">
            <mxPoint as="offset" />
          </mxGeometry>
        </mxCell>
        <mxCell id="VeIiCj26f4UOhB-fIt1d-17" value="Controller" style="rounded=1;whiteSpace=wrap;html=1;" vertex="1" parent="1">
          <mxGeometry x="629" y="220" width="120" height="60" as="geometry" />
        </mxCell>
      </root>
    </mxGraphModel>
  </diagram>
</mxfile>
